<?xml version="1.0" encoding="UTF-8"?>
<svg id="a" data-name="WechatIMG178 1" xmlns="http://www.w3.org/2000/svg" width="282.558" height="149.289" viewBox="0 0 282.558 149.289">
  <path id="b" data-name="Pfad 3" d="m0,90.727c.374-1.869.63-3.769,1.14-5.6,3.074-11.071,12.429-17.762,24.235-17.456,7.533.2,14.083,2.479,18.845,8.657,1.977,2.542,3.249,5.56,3.689,8.75-2.025,0-4.044.038-6.059-.036-.44-.083-.811-.378-.992-.788-1.86-7.075-8.674-11.314-17.113-10.924-7.564.1-14.118,5.268-15.98,12.6-1.619,5.445-1.534,11.255.244,16.65,2.711,8.326,10.68,12.994,19.518,11.667,6.573-.986,11.273-4.222,13.313-10.792.178-.409.543-.707.979-.8,2.02-.076,4.044-.038,6.239-.038-.811,4.205-2.916,8.051-6.021,11-5.742,5.47-12.789,7.034-20.376,6.154-12.02-1.393-19.73-9.279-21.354-21.38-.064-.478-.2-.947-.3-1.42v-6.248l-.007.004Z" fill="#fff"/>
  <path id="c" data-name="Pfad 4" d="m119.828,68.427h6.372v7.8c4.64-6.667,11.054-9.24,18.857-8.646,7.865.6,13.612,4.365,16.8,12.036.208-.419.3-.579.369-.748,3.405-8.454,11.553-11.887,19.293-11.35,11.373.788,18.479,8.057,18.763,19.46.262,10.451.074,20.914.081,31.373,0,.217-.048.431-.088.774h-6.362v-1.968c0-9.2.031-18.4-.014-27.6-.023-4.42-.864-8.652-4.025-12-4.218-4.47-9.57-5.1-15.176-3.769-5.78,1.372-9.137,5.42-10.474,11.059-.518,2.349-.776,4.748-.769,7.153-.088,8.432-.035,16.865-.035,25.3v1.857h-6.518v-1.827c0-9.254.109-18.51-.069-27.761-.046-2.73-.553-5.432-1.5-7.992-2.387-6.286-8.963-9.429-16.221-8.142-6.939,1.231-11.512,6.179-12.468,13.569-.214,1.682-.324,3.375-.329,5.071-.033,8.378-.016,16.756-.016,25.134v1.921h-6.474v-50.7l.003-.004Z" fill="#fff"/>
  <path id="d" data-name="Pfad 5" d="m3.012,65.039V.156c.454-.042.871-.113,1.289-.113,6.685-.006,13.372-.091,20.055.021,5.661.012,11.245,1.307,16.333,3.787,7.219,3.469,12.547,9.937,14.569,17.687,1.993,6.876,2.09,14.162.281,21.089-3.15,12.125-11.366,18.967-23.392,21.421-3.228.601-6.503.918-9.786.949-5.8.147-11.617.042-17.424.042h-1.925ZM9.701,5.703v54.221c7.055-.385,14.073-.173,20.875-1.28,10.039-1.632,16.28-7.983,18.63-17.928,1.051-4.547,1.198-9.256.433-13.86-1.594-10.053-6.854-17.139-16.928-20.026-7.5-2.149-15.2-1.3-22.841-1.242-.045,0-.092.057-.17.111v.004Z" fill="#fff"/>
  <path id="e" data-name="Pfad 6" d="m94.489,37.49l16.7,27.541c-2.662,0-4.992.068-7.311-.057-.468-.024-1.024-.7-1.325-1.2-4.886-8.167-9.743-16.35-14.57-24.55-.437-.941-1.429-1.496-2.46-1.377-3.331.083-6.667.029-10.207.029v27.05h-6.49V.128c.4-.028.875-.085,1.344-.087,6.576-.005,13.152-.105,19.725.027,5.955.12,11.442,1.6,15.824,6.048,7.5,7.616,7.136,26.476-8.792,30.716-.727.194-1.455.393-2.434.658h-.004Zm-19.122-31.63v26.564c.407.035.724.092,1.039.087,5.146-.076,10.309.088,15.431-.307,6.561-.506,10.83-4.663,11.634-11.135.885-7.124-1.746-14.269-11.106-15.116-5.581-.506-11.244-.092-17-.092h.002Z" fill="#fff"/>
  <path id="f" data-name="Pfad 7" d="m57.062,92.958c-.093-6.079,1.993-11.99,5.882-16.664,5.3-6.23,12.244-8.776,20.272-8.6,15.2.326,26.3,11.949,24.486,29.36-1.207,11.606-7.941,19.39-18.474,22.094-13.193,3.384-26-2.884-30.47-14.918-1.281-3.613-1.856-7.439-1.694-11.269l-.002-.003Zm44.148.769c-.191-1.737-.286-3.492-.587-5.21-1.131-7.381-6.783-13.252-14.116-14.662-7.233-1.726-14.796,1.046-19.2,7.037-3.331,4.749-3.94,10.145-3.464,15.7,1.5,17.521,18.677,21.107,28.671,14.752,6.387-4.066,8.587-10.353,8.695-17.617h0Z" fill="#fff"/>
  <path id="g" data-name="Pfad 8" d="m262.647,95.747c.034,8.91-4.94,17.084-12.869,21.148-12.6,6.764-32.531,3.1-37.054-15.516-2.305-9.492-1.041-18.554,5.887-26.067,5.139-5.574,11.769-7.794,19.226-7.618,14.9.353,24.806,10.818,24.812,28.054h-.002Zm-6.715-2.834c-.151-1.129-.3-3.211-.719-5.238-1.513-7.363-7.492-12.981-14.935-14.031-8.388-1.155-15.647,2.217-19.328,9.1-2.491,4.663-2.865,9.7-2.229,14.851,2.037,16.534,18.727,20.017,28.593,13.723,6.34-4.042,8.474-10.288,8.617-18.404h.001Z" fill="#fff"/>
  <path id="h" data-name="Pfad 9" d="m280.937,119.255h-6.334v-50.77h6.334v50.77Z" fill="#fff"/>
  <path id="i" data-name="Pfad 10" d="m272.856,54.523h-1.819c-47.585,0-95.169-.006-142.754-.019-1.226,0-2.07.081-2.683,1.445-.879,1.616-2.821,2.329-4.537,1.665-2.091-.667-3.246-2.902-2.579-4.993.422-1.324,1.505-2.332,2.856-2.657,1.762-.512,3.634.334,4.415,1.994.3.83,1.155,1.322,2.023,1.166,47.913-.017,95.827-.017,143.741,0,.865.138,1.701-.374,1.973-1.206,1.157-2.37,4.016-3.353,6.386-2.197,1.737.848,2.791,2.658,2.671,4.587-.086,2.211-1.67,4.077-3.837,4.522-2.299.474-4.599-.808-5.406-3.012-.156-.4-.281-.807-.449-1.3v.005Z" fill="#fff"/>
  <path id="j" data-name="Pfad 11" d="m112.938,142.745v-2.79c-1.452,2.024-3.81,3.2-6.3,3.142-1.833.053-3.604-.669-4.879-1.988-2.614-2.8-2.337-8.271.523-10.725,3.009-2.582,7.6-1.829,10.6,2.049v-8.283l.436.005v18.582l-.381.009h0Zm-.057-6.673c.016-3.954-2.444-6.61-6.138-6.629-3.781-.019-6.152,2.513-6.147,6.564.005,3.963,2.331,6.514,6,6.584,3.646.068,6.268-2.652,6.284-6.519h.001Z" fill="#fff"/>
  <path id="k" data-name="Pfad 12" d="m47.403,142.894l-5.011-12.649-4.961,12.6-.456.054-4.286-13.562.542-.18,4.006,12.6,4.921-12.6.442-.08,4.969,12.668,4-12.576.537.177-4.258,13.534-.445.012v.002Z" fill="#fff"/>
  <path id="l" data-name="Pfad 13" d="m128.258,124.138v8.406c3.249-4.063,7.891-4.8,10.933-1.943,2.77,2.6,2.742,8.322-.052,10.851-3.066,2.773-7.815,2.007-10.863-2.009v3.332l-.405-.016v-18.592l.39-.029h-.003Zm12.365,11.923c.022-4.07-2.278-6.589-6.045-6.618-3.675-.028-6.27,2.641-6.3,6.483-.028,3.814,2.569,6.625,6.161,6.665,3.715.042,6.157-2.537,6.18-6.53h.004Z" fill="#fff"/>
  <path id="m" data-name="Pfad 14" d="m186.893,129.322l.185,2.936c3.6-3.894,8.182-4.436,11.076-1.425,2.681,2.787,2.389,8.38-.568,10.834-3.04,2.524-7.682,1.69-10.6-2.243v9.672l-.4-.009v-19.706l.3-.055.007-.004Zm12.485,6.6c-.028-3.991-2.444-6.511-6.209-6.478-3.408-.004-6.174,2.756-6.178,6.164,0,.156.006.311.017.466.061,3.821,2.737,6.584,6.312,6.514,3.731-.071,6.086-2.666,6.059-6.668v.002Z" fill="#fff"/>
  <path id="n" data-name="Pfad 15" d="m2.269,134.809v7.943h-.338v-17.963c2.377.042,4.75.218,7.108.525,2,.355,3.052,2.222,3.071,4.5.021,2.333-.961,4.02-2.981,4.564-1.333.271-2.69.411-4.05.419-.859.057-1.727.01-2.811.01v.002Zm.113-.65c1.481,0,2.886.009,4.289-.005.491.009.982-.024,1.467-.1,2.041-.299,3.51-2.116,3.374-4.174.007-2.3-1.131-3.949-3.286-4.2-1.945-.127-3.895-.142-5.842-.047v8.527h-.002Z" fill="#fff"/>
  <path id="o" data-name="Pfad 16" d="m244.812,136.212h-12c-.421,2.47.94,4.898,3.267,5.828,1.645.844,3.601.822,5.226-.059,1.255-.928,2.405-1.992,3.428-3.171-.121,2.513-2.951,4.522-6.568,4.249-4.124-.312-6.561-3.4-6.2-7.855.078-3.6,3.059-6.455,6.659-6.378.315.007.63.036.941.089,3.623.378,5.8,3.287,5.245,7.3l.002-.003Zm-.447-.542c.407-2.061-.517-4.156-2.314-5.245-2.005-1.362-4.627-1.405-6.675-.107-1.883,1.096-2.961,3.182-2.766,5.352h11.755Z" fill="#fff"/>
  <path id="p" data-name="Pfad 17" d="m95.554,136.234h-12.02c-.415,2.406.87,4.783,3.111,5.752,1.631.872,3.586.89,5.233.048,1.324-.952,2.542-2.045,3.632-3.258.236,1.949-2.716,4.533-6.478,4.316-4.081-.236-6.722-3.348-6.395-7.571.346-4.439,3.234-6.987,7.5-6.616,3.729.326,5.92,3.177,5.42,7.327l-.003.002Zm-.439-.556c.088-3.984-2.257-6.346-6.028-6.23-3.121-.029-5.675,2.479-5.703,5.6-.002.21.008.421.029.63h11.702Z" fill="#fff"/>
  <path id="q" data-name="Pfad 18" d="m56.061,136.175c.282,3.587,1.694,5.466,4.379,6.164,3.274.85,5.115-.092,7.741-3.963.126,2.614-2.522,4.706-5.995,4.735-4.159.036-6.878-2.927-6.752-7.356.125-4.4,2.939-7.063,7.24-6.85,3.793.189,6.078,3.017,5.667,7.268h-12.28v.002Zm11.721-.5c.498-2.884-1.436-5.627-4.321-6.125-.251-.043-.504-.068-.758-.075-3.89-.3-6.452,2.08-6.611,6.2h11.69Z" fill="#fff"/>
  <path id="r" data-name="Pfad 19" d="m217.75,135.969c0,4.33-2.707,7.176-6.795,7.136-4.032-.04-6.681-2.847-6.686-7.089-.005-4.346,2.654-7.126,6.8-7.114,4.046.012,6.675,2.794,6.677,7.067h.004Zm-.6-.05c-.016-3.894-2.428-6.454-6.1-6.474-3.741-.021-6.19,2.574-6.187,6.552s2.484,6.622,6.183,6.594,6.119-2.669,6.1-6.672h.004Z" fill="#fff"/>
  <path id="s" data-name="Pfad 20" d="m29.325,136.037c-.007,4.278-2.621,7.046-6.675,7.07-4.076.026-6.812-2.854-6.8-7.159s2.737-7.079,6.892-7.048c4.03.031,6.594,2.808,6.587,7.136h-.004Zm-12.881,0c.01,3.916,2.534,6.58,6.208,6.549s6.146-2.706,6.133-6.634-2.5-6.528-6.222-6.509-6.131,2.633-6.121,6.6l.002-.006Z" fill="#fff"/>
  <path id="t" data-name="Pfad 21" d="m262.093,138.179c-.255,3.2-2.99,5.129-6.566,4.9-4.034-.263-6.395-3.1-6.237-7.491.152-4.23,2.863-6.791,7.063-6.677,3.27.088,5.705,2.132,5.705,4.787-2.879-4.044-4.935-5.028-8.182-3.916-2.82.965-4.086,3.2-3.942,6.946-.041,2.674,1.783,5.016,4.385,5.633,3.293.849,5.47-.27,7.773-4.176v-.006Z" fill="#fff"/>
  <path id="u" data-name="Pfad 22" d="m148.007,149.105c.627-1.6,1.354-3.17,1.838-4.81.26-.849.25-1.758-.031-2.6-1.432-3.606-3.015-7.152-4.54-10.723-.227-.532-.419-1.077-.627-1.616l.443-.18,5.607,12.98c1.8-4.576,3.457-8.807,5.116-13.039l.5.2-7.753,19.972-.554-.187v.003Z" fill="#fff"/>
  <path id="v" data-name="Pfad 24" d="m73.507,142.811v-13.588l.362-.036.256,2.144c1.3-1.871,2.941-2.723,5.16-2.177-.283.122-.576.221-.875.294-2.97.48-4.382,2.113-4.4,5.151-.016,2.245,0,4.489-.009,6.734,0,.5-.066,1-.1,1.509l-.395-.031h0Z" fill="#fff"/>
  <path id="w" data-name="Pfad 25" d="m223.954,129.176h4.03l.007.381-3.977.184c0,3.7-.087,7.346.092,10.978.028.559,1.2,1.207,1.968,1.54.656.124,1.324.178,1.992.163-2.631,1.245-4.687.085-4.748-2.652-.073-3.279-.017-6.561-.017-9.935l-2.113-.314-.014-.272,2.1-.251v-3.23l.412-.031.263,3.44h.005Z" fill="#fff"/>
  <path id="x" data-name="Pfad 26" d="m169.511,142.445h6.642l-.007.338h-7v-17.712l.364-.007v17.381Z" fill="#fff"/>
</svg>