<svg xmlns="http://www.w3.org/2000/svg" width="37.719" height="37.719" viewBox="0 0 37.719 37.719">
  <path id="square-whatsapp" d="M18.86,39.645a11.1,11.1,0,0,0-9.4,17l.261.421L8.6,61.157l4.2-1.1.4.244a11.068,11.068,0,0,0,5.649,1.549h.008A11.011,11.011,0,0,0,26.707,42.9a11.012,11.012,0,0,0-7.847-3.258Zm6.525,15.862a3.4,3.4,0,0,1-2.248,1.583c-1.061.16-1.886.076-4-.834a14.987,14.987,0,0,1-5.7-5.035,6.464,6.464,0,0,1-1.364-3.452,3.736,3.736,0,0,1,1.17-2.787,1.215,1.215,0,0,1,.892-.421c.219,0,.446,0,.64.008s.48-.076.749.573c.278.665.943,2.307,1.027,2.475a.589.589,0,0,1,.025.581c-.64,1.28-1.322,1.229-.977,1.819a9.089,9.089,0,0,0,4.538,3.966c.337.168.53.143.724-.084s.834-.977,1.052-1.305.446-.278.749-.168,1.945.918,2.282,1.086.556.253.64.387A2.962,2.962,0,0,1,25.385,55.507ZM33.678,32H4.041A4.042,4.042,0,0,0,0,36.041V65.678a4.042,4.042,0,0,0,4.041,4.041H33.678a4.042,4.042,0,0,0,4.041-4.041V36.041A4.042,4.042,0,0,0,33.678,32ZM18.851,64.1a13.34,13.34,0,0,1-6.382-1.625L5.388,64.331,7.283,57.41a13.376,13.376,0,1,1,25.048-6.66A13.476,13.476,0,0,1,18.851,64.1Z" transform="translate(0 -32)" fill="#fff"/>
</svg>
