<svg xmlns="http://www.w3.org/2000/svg" width="46.234" height="37.668" viewBox="0 0 46.234 37.668">
  <path id="weixin" d="M44.288,43.4a12.276,12.276,0,0,1,1.58.092C44.473,36.9,37.4,32,29.367,32,20.355,32,13,38.12,13,45.9c0,4.489,2.463,8.2,6.548,11.062l-1.622,4.926,5.716-2.867a28.054,28.054,0,0,0,5.733.815c.521,0,1.017-.025,1.538-.067a11.563,11.563,0,0,1-.521-3.43C30.384,49.207,36.52,43.4,44.288,43.4ZM35.5,38.952a2.043,2.043,0,0,1,0,4.085A2.286,2.286,0,0,1,33.04,41,2.3,2.3,0,0,1,35.5,38.952ZM24.037,43.037A2.3,2.3,0,0,1,21.574,41a2.3,2.3,0,0,1,2.463-2.051,2.043,2.043,0,1,1,0,4.085Zm35.2,13.122c0-6.548-6.548-11.878-13.9-11.878-7.792,0-13.9,5.329-13.9,11.878s6.12,11.878,13.9,11.878a21.278,21.278,0,0,0,4.926-.832l4.489,2.463L53.5,65.583C56.8,63.111,59.234,59.841,59.234,56.159ZM40.816,54.1a1.635,1.635,0,0,1,0-3.27,1.677,1.677,0,1,1,0,3.27Zm9,0a1.635,1.635,0,0,1,0-3.27,1.677,1.677,0,1,1,0,3.27Z" transform="translate(-13 -32)" fill="#fff"/>
</svg>
