<svg xmlns="http://www.w3.org/2000/svg" width="37.669" height="37.669" viewBox="0 0 37.669 37.669">
  <path id="linkedin" d="M34.978,32H2.682A2.7,2.7,0,0,0,0,34.716V66.953a2.7,2.7,0,0,0,2.682,2.716h32.3a2.709,2.709,0,0,0,2.691-2.716V34.716A2.709,2.709,0,0,0,34.978,32ZM11.385,64.287H5.8V46.311h5.591V64.287ZM8.593,43.856a3.237,3.237,0,1,1,3.237-3.237A3.239,3.239,0,0,1,8.593,43.856Zm23.72,20.432H26.73V55.543c0-2.085-.042-4.767-2.9-4.767-2.909,0-3.355,2.27-3.355,4.616v8.9H14.891V46.311h5.356v2.455h.076a5.88,5.88,0,0,1,5.289-2.9c5.65,0,6.7,3.725,6.7,8.568Z" transform="translate(0 -32)" fill="#fff"/>
</svg>
