<svg xmlns="http://www.w3.org/2000/svg" width="26.5" height="24.844" viewBox="0 0 26.5 24.844">
  <path id="undo_FILL0_wght400_GRAD0_opsz24" d="M164.969-775.156v-3.312h11.759a6.731,6.731,0,0,0,4.534-1.656,5.238,5.238,0,0,0,1.925-4.141,5.238,5.238,0,0,0-1.925-4.141,6.732,6.732,0,0,0-4.534-1.656H166.294l4.306,4.306-2.319,2.319L160-791.719,168.281-800l2.319,2.319-4.306,4.306h10.434a9.911,9.911,0,0,1,6.894,2.609,8.414,8.414,0,0,1,2.878,6.5,8.414,8.414,0,0,1-2.878,6.5,9.911,9.911,0,0,1-6.894,2.609Z" transform="translate(-160 800)" fill="#5c6424"/>
</svg>
